<?xml version="1.0" standalone="no"?>
<!DOCTYPE svg PUBLIC "-//W3C//DTD SVG 20010904//EN"
 "http://www.w3.org/TR/2001/REC-SVG-20010904/DTD/svg10.dtd">
<svg version="1.0" xmlns="http://www.w3.org/2000/svg"
 width="500.000000pt" height="500.000000pt" viewBox="0 0 500.000000 500.000000"
 preserveAspectRatio="xMidYMid meet">

<g transform="translate(0.000000,500.000000) scale(0.100000,-0.100000)"
fill="#000000" stroke="none">
<path d="M2360 4534 c-134 -36 -287 -133 -367 -233 -121 -152 -152 -296 -153
-701 0 -118 3 -139 20 -168 36 -59 119 -67 169 -17 25 25 26 26 37 298 6 149
17 284 23 300 65 163 170 262 325 303 173 46 371 -32 477 -190 66 -99 69 -118
68 -485 -1 -179 -4 -391 -8 -470 l-6 -144 -36 -13 c-146 -50 -482 -65 -674
-30 -78 14 -303 79 -389 112 -9 4 -15 -130 -24 -548 -14 -597 -12 -627 37
-759 60 -160 220 -320 379 -379 71 -27 188 -50 252 -50 150 0 338 77 455 187
80 74 142 175 175 283 30 97 38 262 50 995 6 363 13 752 16 865 9 294 -16 423
-107 560 -92 137 -277 259 -440 290 -74 14 -215 11 -279 -6z m678 -2071 c-4
-355 -6 -397 -27 -498 -26 -128 -84 -259 -132 -299 -17 -15 -34 -25 -36 -22
-3 3 2 33 11 68 54 217 64 553 32 1078 -1 21 4 25 41 32 24 4 51 12 60 17 10
6 26 11 36 11 18 0 18 -18 15 -387z"/>
<path d="M1394 1147 c-3 -8 -6 -86 -7 -173 l-2 -159 88 -3 87 -3 0 26 c0 24
-3 25 -55 25 -64 0 -58 -17 -59 165 -1 127 -2 130 -24 133 -12 2 -24 -3 -28
-11z"/>
<path d="M1606 1134 c-25 -26 -26 -30 -26 -149 0 -107 3 -125 20 -148 11 -13
31 -28 45 -31 30 -8 80 15 95 43 15 28 12 252 -3 272 -34 45 -93 50 -131 13z
m79 -154 c0 -104 -2 -115 -19 -118 -29 -6 -36 16 -36 115 0 107 5 125 34 121
20 -3 21 -8 21 -118z"/>
<path d="M1813 1136 l-28 -24 0 -131 c0 -153 8 -170 84 -173 53 -2 81 25 81
78 0 29 -3 34 -24 34 -18 0 -26 -6 -28 -21 -4 -30 -33 -48 -50 -31 -15 15 -22
133 -11 187 7 30 14 41 31 43 18 3 23 -3 28 -27 5 -24 12 -31 30 -31 21 0 24
5 24 40 0 75 -78 107 -137 56z"/>
<path d="M1986 1152 c-3 -5 -5 -80 -5 -167 1 -164 3 -175 42 -175 15 0 18 7
16 38 -1 20 -2 51 0 67 2 29 3 28 25 -20 13 -27 26 -58 29 -67 4 -11 17 -18
32 -18 28 0 32 12 10 30 -8 7 -14 18 -13 24 3 17 -13 76 -21 76 -3 0 -8 12 -9
28 -2 28 4 48 47 155 10 25 9 27 -14 27 -20 0 -29 -11 -51 -60 -33 -75 -48
-77 -42 -7 3 28 3 58 1 65 -5 13 -39 17 -47 4z"/>
<path d="M2304 1145 c-36 -25 -45 -63 -42 -183 3 -99 5 -114 25 -133 16 -17
32 -22 65 -21 60 3 83 30 79 95 -2 29 -44 18 -51 -13 -4 -18 -12 -25 -30 -25
-24 0 -25 3 -30 75 -3 41 -3 93 0 115 4 34 8 40 30 40 18 0 26 -7 30 -25 4
-16 14 -26 28 -28 20 -3 22 1 22 37 0 69 -70 106 -126 66z"/>
<path d="M2668 1154 c-16 -5 -18 -22 -18 -175 l0 -170 28 3 c26 3 27 6 32 73
4 60 8 70 25 73 39 6 65 26 75 58 14 40 4 97 -19 118 -18 17 -93 28 -123 20z
m98 -78 c9 -38 -4 -66 -32 -66 -22 0 -24 4 -24 45 0 41 2 45 25 45 18 0 26 -7
31 -24z"/>
<path d="M2869 1131 c-22 -22 -29 -39 -29 -68 0 -50 19 -76 74 -101 48 -23 63
-50 46 -82 -14 -26 -46 -26 -62 0 -8 12 -24 20 -41 20 -25 0 -28 -3 -22 -22 9
-31 61 -78 86 -78 49 0 98 48 99 98 0 45 -17 69 -77 108 -45 28 -53 39 -53 64
0 24 5 31 27 36 27 7 53 -14 53 -43 0 -7 11 -13 25 -13 29 0 30 8 11 55 -26
62 -89 74 -137 26z"/>
<path d="M3050 1010 c0 -147 1 -152 25 -175 33 -34 87 -34 121 0 24 24 24 27
22 172 -3 145 -3 148 -25 151 -23 3 -23 2 -24 -110 -2 -149 -7 -173 -39 -173
l-25 0 -3 143 -3 142 -24 0 -25 0 0 -150z"/>
<path d="M3258 1148 c-3 -7 -6 -86 -7 -175 l-2 -163 90 0 c90 0 91 0 91 25 0
22 -4 24 -57 27 l-58 3 -5 145 c-5 138 -6 145 -26 148 -12 2 -24 -3 -26 -10z"/>
<path d="M3444 1147 c-2 -7 -1 -78 4 -158 5 -88 5 -149 -1 -156 -14 -19 10
-24 94 -21 66 3 74 5 74 23 0 17 -8 20 -58 23 l-58 3 3 47 c3 43 5 47 31 50
21 3 27 9 27 28 0 20 -5 24 -30 24 -29 0 -30 2 -30 45 l0 44 58 3 c53 3 57 5
57 28 0 24 -2 25 -83 28 -62 2 -84 0 -88 -11z"/>
<path d="M2510 1124 c-6 -14 -10 -35 -10 -47 0 -12 -4 -38 -10 -57 -5 -19 -12
-53 -15 -75 -3 -22 -9 -58 -15 -80 -13 -55 -13 -55 15 -55 18 0 25 5 25 19 0
36 12 51 40 51 24 0 29 -5 34 -35 6 -29 11 -35 32 -35 20 0 23 4 19 23 -13 55
-47 244 -46 261 1 54 -51 77 -69 30z m40 -136 c0 -13 3 -33 6 -45 5 -19 2 -23
-15 -23 -22 0 -25 9 -15 59 7 36 24 42 24 9z"/>
<path d="M1913 690 c-12 -5 -25 -21 -29 -35 -11 -44 3 -73 46 -95 30 -15 40
-27 40 -44 0 -34 -30 -42 -52 -14 -14 19 -19 21 -30 10 -16 -16 -2 -42 32 -59
45 -22 99 28 86 80 -3 14 -22 35 -41 47 -38 23 -60 54 -50 70 11 17 42 11 57
-12 17 -25 38 -17 31 12 -6 21 -40 50 -58 49 -5 0 -20 -4 -32 -9z"/>
<path d="M2577 694 c-4 -4 -7 -61 -7 -126 l0 -118 48 0 c26 0 53 5 60 12 15
15 16 94 2 103 -7 4 -7 12 0 25 14 26 13 75 -2 88 -16 13 -92 25 -101 16z m68
-64 c0 -16 -6 -26 -17 -28 -14 -3 -18 3 -18 28 0 25 4 31 18 28 11 -2 17 -12
17 -28z m3 -103 c2 -18 -2 -29 -13 -33 -24 -9 -37 9 -29 40 9 35 38 31 42 -7z"/>
<path d="M2808 687 c-23 -24 -33 -169 -13 -206 8 -16 23 -31 32 -33 23 -6 69
17 77 37 12 31 6 169 -8 187 -19 25 -69 34 -88 15z m60 -106 c3 -75 -7 -104
-34 -94 -10 4 -14 25 -14 82 0 81 4 94 30 89 11 -3 16 -20 18 -77z"/>
<path d="M2096 653 c28 -66 35 -97 32 -148 -2 -40 1 -51 15 -53 14 -3 17 5 17
56 0 38 7 78 20 107 11 26 20 53 20 61 0 24 -30 16 -40 -11 -5 -14 -14 -25
-19 -25 -5 0 -12 11 -15 25 -4 16 -13 25 -26 25 -20 0 -20 -1 -4 -37z"/>
<path d="M2292 573 c3 -103 5 -118 21 -121 14 -3 17 4 17 47 0 56 14 68 24 21
8 -42 41 -41 60 3 l14 32 1 -37 c1 -47 10 -68 27 -68 11 0 14 24 14 120 0 111
-1 120 -19 120 -15 0 -24 -15 -41 -71 -12 -40 -25 -68 -30 -63 -5 5 -17 36
-28 69 -15 47 -24 61 -41 63 -22 4 -22 3 -19 -115z"/>
<path d="M3000 570 l0 -120 60 0 c46 0 60 3 60 14 0 10 -13 16 -37 18 l-38 3
-3 103 c-2 94 -4 102 -22 102 -19 0 -20 -7 -20 -120z"/>
</g>
</svg>
